<?xml version="1.0" encoding="UTF-8"?>
<svg width="980px" height="605px" viewBox="0 0 980 605" version="1.1" xmlns="http://www.w3.org/2000/svg" xmlns:xlink="http://www.w3.org/1999/xlink">
    <!-- Generator: Sketch 49.2 (51160) - http://www.bohemiancoding.com/sketch -->
    <title>Slice 1</title>
    <desc>Created with Sketch.</desc>
    <defs></defs>
    <g id="Page-1" stroke="none" stroke-width="1" fill="none" fill-rule="evenodd">
        <g id="Group-2" transform="translate(363.000000, 156.000000)">
            <g id="Group" transform="translate(65.000000, 92.000000)" fill="#343334">
                <path d="M0.922987581,73.1321712 C0.146210959,73.6652405 -0.049118835,74.7268424 0.489173737,75.5026283 C0.489173737,75.5026283 0.489173737,75.5026283 8.39775911,86.9828994 C8.86564211,87.661145 9.94904108,87.9855233 10.7712432,87.4206967 L14.480238,84.8687692 L4.63198239,70.5847805 L0.922987581,73.1321712 Z" id="Shape"></path>
                <path d="M18.1392648,84.1701082 L26.2227384,98.9917029 L55.1406331,98.9917029 C55.1406331,98.9917029 55.1406331,98.9917029 63.1423408,93.4840764 C64.0463089,92.8625402 64.5210057,91.7396922 63.2172929,90.7325315 L37.2656856,70.6981995 C37.2656856,70.6981995 37.2656856,70.6981995 25.8638767,54.1549044 C25.225648,53.227137 24.2807969,53.1749642 23.4903926,53.7193754 L7.02363673,65.0408599 C6.24231755,65.5761976 6.04698776,66.635531 6.58528033,67.411317 L18.1392648,84.1701082 Z" id="Path"></path>
                <path d="M124.573561,9.11848841 C123.792242,3.76511168 121.459641,0.564427536 118.336635,0.564427536 C117.786986,0.564427536 117.22371,0.666504635 116.664976,0.872927213 C100.900044,6.59151312 69.9834261,25.6368314 57.6958193,34.0910835 L29.5319886,53.4607801 L39.3847868,67.7493056 L48.9922871,61.1392463 C51.4407234,59.4515716 53.0192606,57.3873459 54.2889043,55.7246233 C55.0520533,54.7242678 55.7129948,53.860015 56.3739363,53.311067 C68.8432452,42.9627176 110.414422,25.1604716 120.598827,22.1299159 C124.723465,20.8959172 125.239045,13.6756638 124.573561,9.11848841 Z" id="Path"></path>
                <path d="M94.2361184,109.535133 L80.2972935,109.535133 L80.2972935,102.39881 L21.0896532,102.39881 L21.0896532,129.029591 C21.0896532,133.192068 17.4124562,133.516446 16.285903,133.516446 L14.53702,133.473347 L14.53702,145.434514 L33.4749249,145.434514 C36.6637973,145.434514 39.493808,143.873869 41.2472336,141.487533 C42.809872,143.92831 45.4172976,145.434514 48.5493881,145.434514 L86.8499267,145.434514 L86.8499267,133.511909 L85.1010437,133.511909 C83.9744904,133.511909 80.2972935,133.187531 80.2972935,129.022785 L80.2972935,125.543091 L94.2361184,109.535133 Z" id="Path"></path>
            </g>
            <path d="M127.5,4.03991332 L3.5,75.5222663 L3.5,218.477734 L127.5,289.960087 L251.5,218.477734 L251.5,75.5222663 L127.5,4.03991332 Z" id="Polygon" stroke="#343334" stroke-width="7"></path>
        </g>
    </g>
</svg>